<svg width="104" height="93" viewBox="0 0 104 93" fill="none" xmlns="http://www.w3.org/2000/svg">
<path d="M52 92.2013C80.3192 92.2013 103.276 83.1953 103.276 72.086C103.276 60.9766 80.3192 51.9707 52 51.9707C23.6808 51.9707 0.723618 60.9766 0.723618 72.086C0.723618 83.1953 23.6808 92.2013 52 92.2013Z" fill="#F9FAFB"/>
<path d="M31.4528 11.907L29.4306 24.5875H22.8583L24.8806 11.907H31.4528Z" fill="#F7F9FC"/>
<path d="M64.1347 25.011C64.5722 25.011 64.8722 25.3527 64.8042 25.7749C64.7375 26.1971 64.3292 26.5402 63.8903 26.5402H38.2028C37.7653 26.5402 37.4639 26.1971 37.532 25.7749C37.5986 25.3527 38.0084 25.011 38.4459 25.011H64.1347Z" fill="#667185"/>
<path d="M66.2695 15.9542H81.2347L78.9903 30.0278L78.1014 35.6028H38.7181C37.2833 35.6028 36.1764 34.675 36.0181 33.3375L35.8958 32.2917C35.7375 30.9556 34.6306 30.0264 33.1958 30.0264H21.9917L22.6153 26.1125H30.7722L33.282 10.3764H25.125L26.5778 1.26392H68.3514L68.5708 1.51392L66.2695 15.9542ZM64.7083 21.4167C65.1458 21.4167 65.5542 21.075 65.6208 20.6528C65.6875 20.2306 65.3889 19.8875 64.9514 19.8875H39.2625C38.825 19.8875 38.4153 20.2306 38.3472 20.6528C38.2806 21.075 38.5806 21.4167 39.0181 21.4167H64.7083ZM63.8917 26.5389C64.3292 26.5389 64.7375 26.1959 64.8056 25.7736C64.8722 25.3514 64.5736 25.0098 64.1361 25.0098H38.4459C38.0084 25.0098 37.5986 25.3514 37.532 25.7736C37.4653 26.1959 37.7653 26.5389 38.2028 26.5389H63.8917ZM63.075 31.6584C63.5125 31.6584 63.9208 31.3167 63.9875 30.8945C64.0542 30.4723 63.7556 30.1292 63.3181 30.1292H37.6292C37.1917 30.1292 36.782 30.4723 36.7139 30.8945C36.6472 31.3167 36.9472 31.6584 37.3847 31.6584H63.075Z" fill="#F7F9FC"/>
<path d="M63.3181 30.1304C63.7556 30.1304 64.0542 30.4734 63.9875 30.8956C63.9208 31.3179 63.5125 31.6595 63.075 31.6595H37.3861C36.9486 31.6595 36.6472 31.3179 36.7153 30.8956C36.782 30.4734 37.1917 30.1304 37.6306 30.1304H63.3181Z" fill="#667185"/>
<path d="M63.3181 30.1304C63.7556 30.1304 64.0542 30.4734 63.9875 30.8956C63.9208 31.3179 63.5125 31.6595 63.075 31.6595H37.3861C36.9486 31.6595 36.6472 31.3179 36.7153 30.8956C36.782 30.4734 37.1917 30.1304 37.6306 30.1304H63.3181Z" fill="#667185"/>
<path d="M91.525 36.061C91.5236 36.018 91.5194 35.9749 91.5153 35.9318C91.5125 35.9068 91.5111 35.8805 91.5083 35.8555C91.5028 35.8082 91.4944 35.761 91.4861 35.7138C91.4833 35.6971 91.4819 35.6805 91.4778 35.6638C91.4778 35.661 91.4764 35.6582 91.475 35.6541C91.4653 35.6041 91.4528 35.5541 91.4403 35.5055C91.4375 35.493 91.4347 35.4791 91.4306 35.4666C91.4139 35.4055 91.3944 35.3443 91.3722 35.2846C91.3722 35.2832 91.3708 35.2818 91.3708 35.2805C91.3694 35.2777 91.3681 35.2749 91.3667 35.2707C91.3333 35.1805 91.2958 35.0943 91.2528 35.0096C91.2486 35.0027 91.2472 34.9943 91.2431 34.9874C91.2417 34.9832 91.2389 34.9805 91.2361 34.9763C91.1972 34.9027 91.1556 34.8305 91.1097 34.761C91.1056 34.7541 91.1014 34.7471 91.0972 34.7402C91.0764 34.7096 91.0556 34.6791 91.0347 34.6499L88.4222 31.0874C88.4486 31.1235 88.4736 31.161 88.4972 31.1985C88.5431 31.268 88.5847 31.3402 88.6236 31.4138C88.6292 31.4249 88.6347 31.436 88.6403 31.4471C88.6819 31.5318 88.7208 31.6193 88.7542 31.7082C88.7556 31.7124 88.7583 31.7166 88.7597 31.7221C88.7806 31.7818 88.8 31.843 88.8181 31.9041C88.8222 31.9166 88.8236 31.9305 88.8278 31.943C88.8403 31.9916 88.8528 32.0416 88.8625 32.0916C88.8667 32.111 88.8694 32.1305 88.8722 32.1499C88.8806 32.1971 88.8875 32.243 88.8944 32.2916C88.8972 32.3166 88.8986 32.343 88.9014 32.368C88.9056 32.411 88.9083 32.4541 88.9111 32.4971C88.9125 32.5249 88.9125 32.5527 88.9125 32.5805C88.9125 32.6221 88.9125 32.6652 88.9111 32.7068C88.9097 32.7346 88.9097 32.7638 88.9069 32.793C88.9042 32.836 88.9 32.8791 88.8958 32.9235C88.8931 32.9513 88.8903 32.9791 88.8861 33.0082C88.8792 33.0555 88.8722 33.1013 88.8625 33.1485C88.8583 33.1735 88.8542 33.1985 88.8486 33.2235C88.8361 33.2846 88.8208 33.3457 88.8042 33.4068C88.8014 33.418 88.7986 33.4291 88.7958 33.4416C88.775 33.5138 88.7514 33.5874 88.725 33.6596C88.7167 33.6818 88.7069 33.7041 88.6986 33.7263C88.6792 33.7777 88.6583 33.8291 88.6361 33.8791C88.6097 33.9374 88.5833 33.9957 88.5542 34.0555L69.8111 71.0332L69.7167 70.9055C69.6833 70.9818 69.6472 71.0555 69.6083 71.1291C69.6056 71.1346 69.6028 71.1388 69.6014 71.1443C69.5639 71.2152 69.5236 71.2832 69.4819 71.3513C69.425 71.443 69.3653 71.5305 69.3014 71.6166C69.2833 71.6416 69.2639 71.6638 69.2458 71.6874C69.2028 71.7416 69.1597 71.7957 69.1139 71.8485C69.0903 71.8763 69.0653 71.9027 69.0403 71.9291C68.9986 71.9735 68.9556 72.018 68.9111 72.061C68.8847 72.086 68.8597 72.1124 68.8333 72.136C68.7861 72.1791 68.7375 72.2207 68.6889 72.2624C68.6639 72.2832 68.6403 72.3041 68.6153 72.3249C68.5403 72.386 68.4625 72.4443 68.3819 72.4985C68.2986 72.5555 68.2125 72.6082 68.125 72.6596C68.1014 72.6735 68.0764 72.686 68.0514 72.6999C67.9764 72.7416 67.9 72.7805 67.8222 72.8166C67.7917 72.8318 67.7597 72.8457 67.7292 72.8596C67.7 72.8721 67.6708 72.8846 67.6417 72.8957C67.5944 72.9152 67.5472 72.9332 67.5 72.9499C67.4694 72.961 67.4403 72.9707 67.4097 72.9818C67.3625 72.9971 67.3153 73.0124 67.2681 73.0249C67.2347 73.0346 67.2028 73.0443 67.1694 73.0527C67.1208 73.0652 67.0708 73.0763 67.0208 73.0874C66.9889 73.0943 66.9569 73.1013 66.9264 73.1082C66.8722 73.118 66.8167 73.1263 66.7611 73.1332C66.7347 73.1374 66.7069 73.1416 66.6806 73.1443C66.5986 73.1541 66.5153 73.161 66.4333 73.1638L69.0458 76.7263C69.05 76.7263 69.0542 76.7249 69.0583 76.7249L69.0597 76.7263C69.0681 76.7263 69.0764 76.7263 69.0861 76.7263C69.125 76.7263 69.1625 76.7249 69.2014 76.7235C69.2181 76.7221 69.2347 76.7193 69.2514 76.7193C69.3347 76.7152 69.4181 76.7068 69.5 76.6957C69.525 76.693 69.5486 76.6902 69.5736 76.6874C69.6792 76.6721 69.7833 76.6513 69.8875 76.6249C69.9125 76.6193 69.9361 76.611 69.9597 76.6055C70.0139 76.5902 70.0694 76.5777 70.1236 76.5596C70.1528 76.5499 70.1819 76.5388 70.2111 76.5291C70.2333 76.5221 70.2542 76.5138 70.2764 76.5068C70.3667 76.4735 70.4556 76.4388 70.5431 76.3999C70.5486 76.3971 70.5542 76.393 70.5611 76.3916C70.5667 76.3888 70.5736 76.3874 70.5806 76.3832C70.5806 76.3832 70.5806 76.3818 70.5792 76.3818C70.5792 76.3818 70.5792 76.3832 70.5806 76.3832C70.6778 76.3388 70.7722 76.2888 70.8653 76.236C70.8681 76.2346 70.8694 76.2332 70.8722 76.2318C70.9 76.2166 70.925 76.1985 70.9514 76.1818C71.0139 76.1443 71.0764 76.1068 71.1375 76.0652C71.1431 76.0624 71.1472 76.0596 71.1528 76.0555C71.1903 76.0305 71.225 76.0013 71.2611 75.9735C71.3042 75.9416 71.3472 75.9124 71.3875 75.8791C71.3931 75.8749 71.3972 75.8721 71.4028 75.868C71.4417 75.8374 71.4764 75.8027 71.5139 75.7707C71.5458 75.743 71.5792 75.7166 71.6097 75.6874C71.6167 75.6805 71.6236 75.6749 71.6306 75.668C71.632 75.6666 71.6319 75.6666 71.6333 75.6652C71.6347 75.6638 71.6347 75.6638 71.6361 75.6624C71.6444 75.6555 71.6528 75.6471 71.6597 75.6402C71.6778 75.6235 71.6917 75.6041 71.7097 75.5874C71.7569 75.5402 71.8056 75.493 71.85 75.443C71.8625 75.4291 71.8736 75.4138 71.8861 75.3999C71.8958 75.3888 71.9083 75.3777 71.9181 75.3666C71.9278 75.3555 71.9375 75.343 71.9472 75.3318C71.9792 75.293 72.0097 75.2541 72.0403 75.2138C72.0458 75.2068 72.0528 75.1999 72.0583 75.1916C72.0597 75.1888 72.0611 75.186 72.0639 75.1832C72.1278 75.0985 72.1875 75.0096 72.2444 74.9193C72.25 74.9096 72.2569 74.9013 72.2625 74.893C72.2681 74.8846 72.2722 74.8749 72.2778 74.8666C72.3222 74.793 72.3639 74.7193 72.4028 74.6416L91.1736 37.6138C91.1986 37.5638 91.2236 37.5124 91.2458 37.4624C91.25 37.4541 91.2528 37.4457 91.2556 37.4388C91.2778 37.3874 91.2986 37.336 91.3181 37.286C91.3264 37.2638 91.3361 37.2416 91.3444 37.2193C91.3708 37.1471 91.3944 37.0735 91.4153 37.0013C91.4181 36.9902 91.4208 36.9791 91.4236 36.9666C91.4403 36.9055 91.4556 36.8443 91.4681 36.7832C91.4736 36.7582 91.4778 36.7332 91.4819 36.7082C91.4903 36.661 91.4986 36.6138 91.5056 36.568C91.5097 36.5402 91.5125 36.5124 91.5153 36.4832C91.5194 36.4402 91.5236 36.3957 91.5264 36.3527C91.5278 36.3235 91.5292 36.2957 91.5306 36.2666C91.5319 36.2235 91.5319 36.1818 91.5319 36.1402C91.5264 36.1166 91.5264 36.0888 91.525 36.061Z" fill="#667185"/>
<path d="M68.8903 77.0499L65.832 72.8791L66.4181 72.8555C66.4931 72.8527 66.5681 72.8457 66.6431 72.8374C66.6556 72.836 66.6681 72.8346 66.6792 72.8318L66.7167 72.8263C66.7667 72.8193 66.8167 72.8124 66.8667 72.8027C66.8847 72.7999 66.9042 72.7957 66.9222 72.7916L66.9542 72.7846C66.9986 72.7749 67.0445 72.7652 67.0889 72.7541C67.1139 72.7471 67.1375 72.7402 67.1625 72.7332L67.1792 72.7277C67.2222 72.7152 67.2667 72.7027 67.3097 72.6874C67.3375 72.6777 67.3653 72.668 67.3931 72.6582C67.4361 72.643 67.4806 72.6263 67.5236 72.6082C67.5556 72.5957 67.5792 72.586 67.6042 72.5749C67.625 72.5666 67.6431 72.5568 67.6625 72.5471L67.6903 72.5346C67.7625 72.5013 67.8319 72.4652 67.9014 72.4277L67.9306 72.4124C67.9431 72.4055 67.9569 72.3985 67.9694 72.3916C68.0597 72.3388 68.1361 72.2916 68.2056 72.243C68.2736 72.1957 68.3431 72.1443 68.4194 72.0832C68.4319 72.0721 68.4458 72.0624 68.4583 72.0513L68.4875 72.0263C68.532 71.9888 68.5764 71.9499 68.6194 71.9096C68.6403 71.8902 68.6597 71.8707 68.6806 71.8513L68.6917 71.8402C68.732 71.8013 68.7708 71.7596 68.8097 71.7193C68.832 71.6957 68.8542 71.6707 68.8764 71.6457C68.9195 71.5971 68.9583 71.5485 68.9986 71.4985L69.0208 71.4707C69.0306 71.4582 69.0403 71.4457 69.05 71.4332C69.1111 71.3527 69.1667 71.2707 69.2153 71.1902C69.2542 71.1277 69.2903 71.0652 69.325 71.0013L69.3306 70.9888C69.3667 70.9207 69.4 70.8527 69.4292 70.7832L69.6458 70.286L69.7597 70.4416L88.2778 33.9138C88.3056 33.8596 88.3292 33.8068 88.3528 33.7527C88.3736 33.7055 88.3917 33.6596 88.4097 33.6124L88.4333 33.5527C88.457 33.486 88.4792 33.4207 88.4972 33.3541L88.5042 33.3235C88.5195 33.268 88.5333 33.2124 88.5444 33.1582L88.557 33.0916C88.5653 33.0485 88.5722 33.0068 88.5778 32.9652C88.5806 32.9471 88.5819 32.9277 88.5847 32.9082L88.5861 32.8902C88.5903 32.8513 88.5944 32.8124 88.5958 32.7735C88.5972 32.7485 88.5986 32.7235 88.5986 32.6985C88.6 32.6596 88.6 32.6221 88.6 32.5846C88.6 32.5596 88.6 32.536 88.5986 32.511C88.5972 32.4735 88.5945 32.4346 88.5903 32.3971L88.5875 32.3721C88.5861 32.3582 88.5847 32.3443 88.5833 32.3291C88.5778 32.2874 88.5708 32.2457 88.5639 32.2041L88.5556 32.1513C88.5472 32.1068 88.5361 32.0638 88.525 32.0193L88.5181 31.9916C88.5014 31.9305 88.4847 31.8777 88.4653 31.8249L88.4625 31.818C88.4333 31.7388 88.4014 31.6638 88.3611 31.5846L88.3514 31.5638C88.3153 31.4943 88.2778 31.4305 88.2361 31.3666C88.2139 31.3332 88.1931 31.3013 88.1708 31.2693L88.675 30.8999C88.6764 30.9013 88.6778 30.9027 88.6778 30.9041L91.2875 34.4624C91.3125 34.4957 91.3361 34.5291 91.3583 34.5638L91.3778 34.5971C91.4236 34.6666 91.4694 34.7443 91.5097 34.8207L91.5194 34.8374C91.5278 34.8541 91.5333 34.868 91.5389 34.8805C91.5819 34.9652 91.6222 35.0569 91.6556 35.1499L91.6694 35.1888C91.6889 35.2443 91.7111 35.3124 91.7306 35.3805C91.7333 35.393 91.7361 35.4041 91.7389 35.4166C91.7556 35.4791 91.7681 35.5346 91.7792 35.5916L91.7833 35.6096C91.7847 35.6166 91.7875 35.6318 91.7889 35.6471C91.8 35.7096 91.8083 35.7624 91.8139 35.8152C91.8167 35.8374 91.8181 35.8596 91.8208 35.8818L91.8222 35.9013C91.8264 35.9485 91.8306 35.9957 91.8319 36.0443C91.8333 36.0749 91.8333 36.1055 91.8347 36.136C91.8361 36.1818 91.8347 36.2291 91.8333 36.2777C91.8319 36.3096 91.8306 36.3402 91.8292 36.3721C91.8264 36.4207 91.8222 36.468 91.8167 36.5166L91.8153 36.5332C91.8125 36.5582 91.8097 36.5846 91.8069 36.6096C91.8 36.661 91.7903 36.7124 91.7819 36.7638L91.7778 36.7874C91.775 36.8068 91.7708 36.8277 91.7667 36.8471C91.7528 36.9138 91.7361 36.9818 91.7181 37.0485C91.7139 37.0652 91.7111 37.0763 91.7083 37.086C91.6861 37.1652 91.6597 37.2457 91.6306 37.3249C91.625 37.3416 91.6181 37.3582 91.6111 37.3749L91.6028 37.3957C91.5806 37.4513 91.5583 37.5069 91.5347 37.5624C91.532 37.5707 91.5278 37.5805 91.5236 37.5902C91.4986 37.6443 91.4736 37.6985 91.4458 37.7541L72.675 74.7818C72.6361 74.8568 72.5917 74.9374 72.5389 75.0263C72.5347 75.0346 72.5292 75.0443 72.5236 75.0541C72.5167 75.0652 72.5097 75.0763 72.5028 75.086C72.4403 75.1846 72.3792 75.2749 72.3167 75.3596L72.3222 75.3666L72.15 75.5666L72.1486 75.568L71.9097 75.8471L71.8986 75.8346C71.8903 75.8443 71.8806 75.8527 71.8722 75.8624L71.8181 75.9138C71.7945 75.936 71.7708 75.9555 71.7472 75.9763L71.6792 76.0346C71.6514 76.0596 71.6236 76.0846 71.5945 76.1082L71.5722 76.1249C71.5444 76.1471 71.5097 76.1735 71.475 76.1985L71.4056 76.2499C71.3792 76.2707 71.3514 76.2916 71.3236 76.311L71.3 76.3263C71.2431 76.3652 71.1764 76.4055 71.1097 76.4457L71.082 76.4638C71.0681 76.4735 71.0528 76.4818 71.0389 76.4916L71.0486 76.5041L70.725 76.6555C70.7195 76.6582 70.7139 76.661 70.7083 76.6624L70.4806 76.768L70.475 76.761C70.4445 76.7721 70.4125 76.7846 70.3792 76.7971L70.2792 76.8318C70.2569 76.8402 70.2361 76.8471 70.2139 76.8541C70.1667 76.8693 70.1181 76.8818 70.0708 76.8943L70.0139 76.9166C69.9958 76.9221 69.9778 76.9277 69.9583 76.9318C69.8458 76.9596 69.7306 76.9818 69.6167 76.9999C69.5972 77.0027 69.5792 77.0055 69.5597 77.0068L69.5361 77.0096C69.4445 77.0221 69.3528 77.0305 69.2653 77.0346C69.2445 77.0374 69.2278 77.0388 69.2111 77.0402C69.1681 77.0416 69.1264 77.043 69.0847 77.043H69.0556H69.05L68.8903 77.0499ZM67 73.4138L69.2 76.4124C69.2111 76.411 69.2208 76.4096 69.232 76.4096C69.307 76.4055 69.3833 76.3985 69.4583 76.3888L69.525 76.3805C69.6208 76.3666 69.7167 76.3471 69.8111 76.3235L69.9153 76.2957C69.9528 76.286 69.9917 76.2763 70.0292 76.2638C70.0431 76.2596 70.0569 76.2541 70.0708 76.2499L70.1695 76.2152C70.2653 76.1805 70.3431 76.1485 70.4139 76.1166C70.4125 76.1166 70.4208 76.1124 70.4292 76.1082L70.4542 76.0985C70.5389 76.0596 70.625 76.0152 70.7097 75.9666L70.7236 75.9582C70.7292 75.9541 70.7375 75.9499 70.7458 75.9443C70.7597 75.9346 70.775 75.9263 70.7889 75.9166C70.8486 75.8805 70.9056 75.8471 70.9597 75.8096L70.9819 75.7957C70.9917 75.7888 71.0097 75.7749 71.0278 75.761L71.1097 75.6999C71.1361 75.6805 71.1639 75.661 71.1903 75.6402L71.2111 75.6249C71.225 75.6138 71.2445 75.5957 71.2639 75.5777L71.3486 75.5041C71.3639 75.4916 71.3806 75.4777 71.3945 75.4638L71.4528 75.4068C71.4639 75.3943 71.475 75.3818 71.4861 75.3707L71.5153 75.3416C71.55 75.3068 71.5833 75.2735 71.6167 75.2374C71.6319 75.2193 71.6403 75.2082 71.6486 75.1985C71.6583 75.1874 71.6667 75.1777 71.6764 75.1693L71.9139 75.368L71.6792 75.1666L71.7056 75.136C71.7333 75.1027 71.7583 75.0693 71.7847 75.036C71.7945 75.0221 71.8014 75.0152 71.8069 75.0082L71.8125 74.9999C71.8667 74.9277 71.9208 74.8485 71.9764 74.7582C71.982 74.7499 71.9889 74.7388 71.9958 74.7291C71.9958 74.7277 72.0014 74.7193 72.0056 74.7096C72.0458 74.643 72.0847 74.5749 72.1208 74.5041L90.8917 37.4777C90.9153 37.4318 90.9375 37.3846 90.9583 37.3388L90.9681 37.3166C90.9889 37.2707 91.0069 37.2235 91.025 37.1777L91.0486 37.118C91.0722 37.0513 91.0944 36.986 91.1125 36.9194L91.1208 36.8888C91.1361 36.8346 91.15 36.7791 91.1611 36.7235L91.1736 36.6555C91.1819 36.6138 91.1889 36.5707 91.1945 36.5291C91.1972 36.5096 91.1986 36.4902 91.2014 36.4707L91.2028 36.4541C91.207 36.4152 91.2111 36.3763 91.2125 36.3374C91.2139 36.3124 91.2153 36.2874 91.2153 36.261C91.2167 36.2235 91.2167 36.186 91.2167 36.1485C91.2167 36.1235 91.2167 36.0985 91.2153 36.0749C91.2139 36.0374 91.2111 35.9985 91.2069 35.961L91.2056 35.9374C91.2042 35.9221 91.2028 35.9068 91.2014 35.8916C91.1958 35.8499 91.1903 35.8096 91.1819 35.768L91.175 35.7221C91.1736 35.7166 91.1722 35.7124 91.1722 35.7068C91.1653 35.6707 91.1542 35.6277 91.1431 35.5832L91.1361 35.5555C91.1208 35.4971 91.1042 35.4457 91.0861 35.3943C91.0847 35.3916 91.082 35.386 91.0806 35.3791C91.0528 35.3041 91.0208 35.2291 90.9806 35.1485L90.9653 35.118C90.9333 35.0568 90.8972 34.9957 90.8556 34.9305L90.8375 34.9013C90.8264 34.886 90.8083 34.8596 90.7903 34.8346L89.2306 32.7068C89.2306 32.7096 89.2306 32.7138 89.2306 32.7166C89.2292 32.7485 89.2278 32.7805 89.2264 32.8124C89.2236 32.8596 89.2194 32.9082 89.2139 32.9568L89.2125 32.9749C89.2097 32.9999 89.2069 33.0249 89.2042 33.0499C89.1972 33.1027 89.1875 33.1541 89.1778 33.2068L89.1736 33.2305C89.1708 33.2499 89.1667 33.2693 89.1625 33.2888C89.1486 33.3568 89.132 33.4235 89.1125 33.4916L89.1042 33.5263C89.0806 33.6082 89.0556 33.6874 89.0264 33.7666C89.0208 33.7832 89.0139 33.7999 89.007 33.8166L88.9986 33.8374C88.9764 33.893 88.9556 33.9485 88.9306 34.0041C88.9028 34.068 88.8736 34.1318 88.8403 34.1943L69.8639 71.6249L69.7653 71.4902C69.7611 71.4971 69.757 71.5055 69.7514 71.5124C69.6931 71.6082 69.6264 71.7041 69.5556 71.7999C69.5417 71.818 69.5278 71.836 69.5139 71.8541L69.4958 71.8777C69.4486 71.9374 69.4014 71.9957 69.3514 72.0527C69.3264 72.0818 69.3 72.111 69.2722 72.1402C69.2264 72.1888 69.1806 72.236 69.1333 72.2832L69.1222 72.2943C69.0986 72.318 69.0736 72.3416 69.05 72.3652C68.9986 72.4124 68.9472 72.4568 68.8945 72.5013L68.8708 72.5221C68.8528 72.5374 68.8347 72.5541 68.8153 72.568C68.7264 72.6388 68.6445 72.6999 68.5639 72.7555C68.482 72.8124 68.3917 72.8693 68.2875 72.9291C68.2695 72.9402 68.25 72.9499 68.232 72.9596L68.2083 72.9721C68.1278 73.0166 68.0444 73.0596 67.9597 73.0985L67.9347 73.1096C67.9097 73.1221 67.8833 73.1332 67.8583 73.1457C67.8306 73.1582 67.8 73.1707 67.7708 73.1818C67.7125 73.2055 67.6611 73.2249 67.6097 73.2443C67.5778 73.2555 67.5445 73.268 67.5125 73.2791C67.4611 73.2957 67.4097 73.311 67.3583 73.3263L67.3417 73.3305C67.3111 73.3388 67.2806 73.3485 67.2514 73.3555C67.1986 73.3693 67.1445 73.3805 67.0903 73.393L67.0625 73.3985C67.0389 73.4068 67.0195 73.411 67 73.4138Z" fill="#F9FAFB"/>
<path d="M86.1945 30.0291C88.3597 30.0291 89.5611 32.0763 88.557 34.0554L69.7861 71.0832C69.1542 72.3291 67.8083 73.1693 66.4445 73.1679C67.8181 73.111 69.1514 72.1985 69.7167 70.9054L83.4722 39.4513C84.3208 37.511 83.1083 35.6041 81.0236 35.6041H78.0986L78.9875 30.0291H86.1945Z" fill="#D0D5DD"/>
<path d="M66.4472 73.4805C66.4458 73.4805 66.4445 73.4805 66.4431 73.4805L66.4306 72.8555C67.6847 72.8041 68.9181 71.9513 69.4292 70.7805L83.1847 39.3263C83.5514 38.4875 83.5097 37.6194 83.0681 36.9458C82.6403 36.293 81.8959 35.918 81.0222 35.918H77.732L78.7208 29.718H86.1931C87.3153 29.718 88.2667 30.2194 88.8042 31.0958C89.3542 31.9916 89.3653 33.1527 88.8347 34.1986L70.0639 71.2236C69.3792 72.5736 67.9264 73.4805 66.4472 73.4805ZM78.4667 35.2916H81.025C82.1125 35.2916 83.0486 35.7694 83.5931 36.6027C84.1514 37.4569 84.2125 38.5402 83.7583 39.5764L73.4042 63.2527L88.2778 33.9138C88.7167 33.05 88.7139 32.1402 88.2722 31.4208C87.8514 30.7347 87.0945 30.3416 86.1945 30.3416H79.2556L78.4667 35.2916Z" fill="#F9FAFB"/>
<path d="M86.3542 41.6154C86.3514 41.5681 86.3486 41.5209 86.3431 41.4737C86.3403 41.4501 86.3375 41.4265 86.3347 41.4029C86.3292 41.3612 86.3236 41.3195 86.3153 41.2779C86.3125 41.2654 86.3125 41.2529 86.3097 41.2404C86.307 41.2279 86.3042 41.2167 86.3014 41.2042C86.2931 41.1667 86.2847 41.1279 86.275 41.0904C86.2695 41.0667 86.2625 41.0431 86.257 41.0195C86.2458 40.9806 86.2333 40.9417 86.2195 40.9029C86.2139 40.8876 86.2097 40.8709 86.2042 40.8556C86.2028 40.8529 86.2014 40.8501 86.2 40.8459C86.1667 40.7556 86.1292 40.6695 86.0861 40.5848C86.082 40.5779 86.0806 40.5695 86.0764 40.5626C86.0736 40.557 86.0695 40.5529 86.0667 40.5473C86.0278 40.4737 85.9861 40.4029 85.9417 40.3348C85.9375 40.3292 85.9347 40.3237 85.932 40.3181C85.9111 40.2876 85.8903 40.2584 85.8695 40.2292L83.257 36.6667C83.282 36.7015 83.3056 36.7376 83.3292 36.7737C83.3736 36.8431 83.4167 36.914 83.4542 36.9862C83.4611 36.9987 83.4667 37.0112 83.4736 37.0237C83.5167 37.1084 83.5542 37.1959 83.5875 37.2848C83.5945 37.3042 83.6 37.3223 83.607 37.3417C83.6195 37.3806 83.6333 37.4195 83.6445 37.4584C83.6514 37.482 83.657 37.5056 83.6625 37.5292C83.6722 37.5667 83.6806 37.6042 83.6889 37.6431C83.6945 37.6681 83.6986 37.6917 83.7028 37.7167C83.7097 37.7584 83.7167 37.8001 83.7222 37.8417C83.725 37.8654 83.7292 37.889 83.7306 37.9126C83.7347 37.9598 83.7389 38.007 83.7403 38.0542C83.7417 38.0737 83.7431 38.0931 83.7431 38.1126C83.7445 38.1792 83.7445 38.2473 83.7417 38.3154C83.7417 38.3265 83.7403 38.3376 83.7389 38.3501C83.7361 38.407 83.7319 38.464 83.725 38.5223C83.7222 38.5459 83.7181 38.5695 83.7153 38.5931C83.7083 38.639 83.7014 38.6862 83.6931 38.732C83.6889 38.7584 83.6833 38.7848 83.6778 38.8112C83.6681 38.8556 83.657 38.9015 83.6458 38.9473C83.6389 38.9737 83.632 39.0001 83.625 39.0265C83.6111 39.0751 83.5958 39.1237 83.5792 39.1723C83.5708 39.1945 83.5639 39.2181 83.5556 39.2404C83.5306 39.3112 83.5014 39.3834 83.4708 39.4542L69.7153 70.9084C69.682 70.9848 69.6458 71.0584 69.607 71.132C69.6042 71.1376 69.6014 71.1418 69.6 71.1473C69.5625 71.2181 69.5222 71.2862 69.4806 71.3542C69.4236 71.4459 69.3639 71.5334 69.3 71.6195C69.282 71.6445 69.2625 71.6667 69.2444 71.6904C69.2014 71.7445 69.1583 71.7987 69.1125 71.8515C69.0889 71.8793 69.0639 71.9056 69.0389 71.932C68.9972 71.9765 68.9542 72.0209 68.9097 72.064C68.8833 72.089 68.8583 72.1154 68.832 72.139C68.7847 72.182 68.7361 72.2237 68.6875 72.2654C68.6625 72.2862 68.6389 72.307 68.6139 72.3279C68.5389 72.389 68.4611 72.4473 68.3806 72.5015C68.2972 72.5584 68.2111 72.6112 68.1236 72.6626C68.1 72.6765 68.075 72.689 68.05 72.7029C67.975 72.7445 67.8986 72.7834 67.8208 72.8195C67.7903 72.8348 67.7583 72.8487 67.7278 72.8626C67.6986 72.8751 67.6695 72.8876 67.6403 72.8987C67.5931 72.9181 67.5458 72.9362 67.4986 72.9529C67.4681 72.964 67.4389 72.9737 67.4083 72.9848C67.3611 73.0001 67.3139 73.0154 67.2667 73.0279C67.2333 73.0376 67.2014 73.0473 67.1681 73.0556C67.1195 73.0681 67.0695 73.0793 67.0195 73.0904C66.9875 73.0973 66.9556 73.1042 66.925 73.1112C66.8708 73.1209 66.8153 73.1293 66.7597 73.1362C66.7333 73.1404 66.7056 73.1445 66.6792 73.1473C66.5972 73.157 66.5139 73.164 66.4319 73.1667L19.5722 73.1695C18.6264 73.1695 17.8236 72.7654 17.3403 72.107L19.9528 75.6695C20.4361 76.3279 21.2389 76.732 22.1847 76.732L69.0444 76.7293C69.1278 76.7265 69.2097 76.7195 69.2917 76.7098C69.3195 76.707 69.3458 76.7015 69.3722 76.6987C69.4278 76.6917 69.482 76.6834 69.5361 76.6737C69.5681 76.6681 69.6 76.6598 69.632 76.6529C69.682 76.6417 69.7306 76.632 69.7792 76.6181C69.8125 76.6098 69.8458 76.6001 69.8792 76.5904C69.9083 76.582 69.9375 76.5751 69.9667 76.5654C69.9847 76.5598 70.0028 76.5529 70.0208 76.5473C70.0514 76.5376 70.0806 76.5265 70.1111 76.5154C70.1583 76.4987 70.2056 76.4792 70.2528 76.4612C70.282 76.4487 70.3111 76.4376 70.3403 76.4251C70.3556 76.4181 70.3708 76.4126 70.3847 76.407C70.4014 76.4001 70.4167 76.3904 70.4333 76.382C70.5111 76.3459 70.5875 76.307 70.6625 76.2654C70.6792 76.257 70.6958 76.2501 70.7111 76.2404C70.7194 76.2348 70.7278 76.2293 70.7361 76.2251C70.907 76.1265 71.0708 76.014 71.225 75.8904C71.2306 75.8862 71.2375 75.882 71.2431 75.8765C71.2625 75.8612 71.2792 75.8431 71.2986 75.8279C71.3472 75.7862 71.3958 75.7445 71.4431 75.7015C71.4528 75.6917 71.4639 75.6834 71.475 75.6737C71.4917 75.6584 71.5056 75.6418 71.5222 75.6251C71.5667 75.582 71.6097 75.5376 71.6514 75.4931C71.6653 75.4779 71.6792 75.4654 71.6931 75.4501C71.7042 75.4376 71.7139 75.4251 71.725 75.4126C71.7708 75.3598 71.8139 75.307 71.8569 75.2515C71.8708 75.2334 71.8861 75.2167 71.9 75.1987C71.9042 75.1931 71.9083 75.1862 71.9139 75.1792C71.9778 75.0931 72.0389 75.0042 72.0945 74.914C72.0972 74.9098 72.1014 74.9056 72.1042 74.9001C72.1431 74.8362 72.1792 74.7723 72.2139 74.707C72.2167 74.7015 72.2195 74.6959 72.2222 74.6904C72.2528 74.6306 72.2833 74.5709 72.3111 74.5098C72.3181 74.4959 72.3236 74.4806 72.3306 74.4667L86.0861 43.0126C86.1167 42.9417 86.1445 42.8695 86.1708 42.7987C86.1792 42.7751 86.1861 42.7529 86.1945 42.7306C86.2111 42.682 86.2264 42.6334 86.2403 42.5848C86.2472 42.5584 86.2542 42.532 86.2611 42.5056C86.2722 42.4598 86.2833 42.4154 86.2931 42.3695C86.2986 42.3431 86.3042 42.3167 86.3083 42.2904C86.3167 42.2445 86.3236 42.1973 86.3306 42.1515C86.3333 42.1279 86.3375 42.1042 86.3403 42.0806C86.3472 42.0223 86.3514 41.9654 86.3542 41.9084C86.3542 41.8973 86.3556 41.8862 86.357 41.8737C86.3597 41.8056 86.3597 41.7376 86.3583 41.6709C86.357 41.6542 86.3556 41.6348 86.3542 41.6154Z" fill="#D0D5DD"/>
<path d="M22.1847 77.0458C21.1611 77.0458 20.2556 76.6125 19.7014 75.8555L17.0889 72.293L17.5931 71.9236L17.5958 71.9264C18.032 72.518 18.7528 72.8583 19.5736 72.8583L66.4333 72.8555C66.4958 72.8528 66.5708 72.8458 66.6458 72.8375C66.6583 72.8361 66.6708 72.8347 66.6819 72.8319L66.7194 72.8264C66.7694 72.8194 66.8194 72.8125 66.8694 72.8028C66.8875 72.8 66.907 72.7958 66.925 72.7917L66.9569 72.7847C67.0014 72.775 67.0472 72.7653 67.0917 72.7542C67.1167 72.7472 67.1403 72.7403 67.1653 72.7333L67.1819 72.7278C67.225 72.7153 67.2694 72.7028 67.3125 72.6875C67.3403 72.6778 67.3681 72.668 67.3958 72.6583C67.4389 72.643 67.4833 72.6264 67.5264 72.6083C67.5583 72.5958 67.5819 72.5861 67.6069 72.575C67.6278 72.5667 67.6458 72.5569 67.6653 72.5472L67.6931 72.5347C67.7653 72.5014 67.8347 72.4653 67.9042 72.4278L67.9333 72.4125C67.9458 72.4055 67.9597 72.3986 67.9722 72.3917C68.0625 72.3389 68.1389 72.2917 68.2083 72.243C68.2764 72.1958 68.3458 72.1444 68.4222 72.0833C68.4347 72.0722 68.4486 72.0625 68.4611 72.0514L68.4903 72.0264C68.5347 71.9889 68.5792 71.95 68.6222 71.9097C68.6431 71.8903 68.6625 71.8708 68.6833 71.8514L68.6945 71.8403C68.7347 71.8014 68.7736 71.7597 68.8125 71.7194C68.8347 71.6958 68.857 71.6708 68.8792 71.6458C68.9222 71.5972 68.9611 71.5486 69.0014 71.4986L69.0236 71.4708C69.0333 71.4583 69.0431 71.4458 69.0528 71.4333C69.1139 71.3528 69.1694 71.2708 69.2181 71.1903C69.2569 71.1278 69.2931 71.0653 69.3278 71.0014L69.3333 70.9889C69.3694 70.9208 69.4028 70.8528 69.4319 70.7833L83.1875 39.3292C83.2153 39.2639 83.2417 39.1986 83.2653 39.1347L83.2861 39.0722C83.3 39.0292 83.3153 38.9847 83.3278 38.9403C83.3333 38.918 83.3403 38.8958 83.3458 38.8736C83.3583 38.8278 83.3681 38.7875 83.3764 38.7472C83.3819 38.7236 83.3861 38.7 83.3903 38.6764C83.3986 38.6333 83.4042 38.5917 83.4097 38.5514L83.4181 38.4889C83.4236 38.4375 83.4278 38.3861 83.4306 38.3347L83.4319 38.3083C83.4347 38.243 83.4347 38.1833 83.4333 38.1236L83.4306 38.0722C83.4278 38.0292 83.4264 37.9875 83.4208 37.9472C83.4194 37.9305 83.4167 37.9153 83.4153 37.9014L83.4125 37.8847C83.4069 37.8472 83.4014 37.8111 83.3958 37.7736C83.3917 37.7514 83.3875 37.7305 83.3833 37.7083C83.3764 37.675 83.3681 37.6417 83.3597 37.6083L83.3431 37.5458C83.3333 37.5125 83.3222 37.4778 83.3111 37.443L83.2944 37.393C83.2667 37.318 83.2347 37.243 83.1944 37.1639L83.1778 37.1305C83.1444 37.0667 83.1083 37.0042 83.0681 36.9444C83.0486 36.9139 83.0278 36.8833 83.007 36.8542L83.0056 36.8514L83.5097 36.4819C83.5097 36.4819 83.5097 36.4819 83.5097 36.4833L86.1222 40.0444C86.1458 40.0778 86.1694 40.1111 86.1931 40.1444L86.2097 40.1708C86.2583 40.2458 86.3028 40.3208 86.3431 40.3958C86.3472 40.4028 86.3514 40.4097 86.3556 40.4167L86.3722 40.4528C86.4194 40.5472 86.4583 40.6375 86.4917 40.7264L86.4986 40.7458C86.5056 40.7639 86.5097 40.7778 86.5139 40.7917C86.5319 40.8458 86.5458 40.8903 86.5597 40.9347C86.5667 40.9583 86.5722 40.9819 86.5792 41.0055C86.5917 41.0555 86.6028 41.0972 86.6111 41.1403C86.6153 41.1569 86.6181 41.168 86.6194 41.1792C86.6222 41.1944 86.6236 41.2055 86.625 41.218C86.6347 41.2694 86.6417 41.3167 86.6472 41.3625C86.6514 41.3972 86.6542 41.4194 86.657 41.443C86.6625 41.4958 86.6653 41.5486 86.6681 41.6014L86.6694 41.6194C86.6708 41.6347 86.6722 41.65 86.6722 41.6667C86.675 41.7417 86.675 41.8167 86.6708 41.8917L86.6681 41.9236C86.6639 41.993 86.6597 42.0555 86.6514 42.1194C86.6486 42.1389 86.6458 42.1583 86.6431 42.1764L86.6403 42.1972C86.6333 42.2472 86.625 42.2986 86.6153 42.35C86.6097 42.3792 86.6042 42.4083 86.5986 42.4361C86.5875 42.4861 86.5764 42.5361 86.5639 42.5861C86.5569 42.6153 86.5486 42.6444 86.5403 42.6736C86.525 42.7264 86.5083 42.7792 86.4903 42.8333L86.4833 42.8528C86.4778 42.8708 86.4708 42.8903 86.4639 42.9083C86.4361 42.9847 86.4056 43.0625 86.3722 43.1403L72.5945 74.643C72.5653 74.7083 72.532 74.7736 72.4986 74.8375L72.4903 74.8542C72.4514 74.9264 72.4125 74.9972 72.3694 75.0653L72.3556 75.0861C72.2958 75.1833 72.2319 75.2764 72.1625 75.368C72.1611 75.3708 72.1556 75.3792 72.1486 75.3889C72.1375 75.4042 72.125 75.418 72.1125 75.4319L72.1014 75.4458C72.0542 75.5055 72.007 75.5639 71.9583 75.6194C71.9445 75.6375 71.9347 75.6486 71.9236 75.6611C71.9125 75.6736 71.9014 75.6847 71.8889 75.6972L71.8792 75.7069C71.8333 75.7555 71.7875 75.8028 71.7403 75.85L71.7278 75.8625C71.7153 75.8764 71.7028 75.8889 71.6889 75.9014C71.6792 75.9111 71.6694 75.9194 71.6597 75.9278C71.6042 75.9792 71.5514 76.0236 71.4986 76.068L71.4819 76.0819C71.4681 76.0944 71.4528 76.1083 71.4375 76.1194L71.4139 76.1375C71.2528 76.2667 71.075 76.3875 70.8903 76.4958C70.8833 76.5 70.8736 76.5069 70.8639 76.5125C70.8486 76.5208 70.8347 76.5278 70.8194 76.5361C70.7306 76.5847 70.6472 76.6264 70.5639 76.6667C70.5403 76.6792 70.5264 76.6861 70.5111 76.693C70.5 76.6986 70.4875 76.7028 70.475 76.7083C70.4306 76.7278 70.3986 76.7403 70.3667 76.7528C70.3167 76.7736 70.2653 76.793 70.2139 76.8111C70.1819 76.8222 70.1486 76.8347 70.1167 76.8458L70.1 76.8514C70.0861 76.8569 70.0722 76.8611 70.0583 76.8653C70.0375 76.8722 70.0153 76.8778 69.9931 76.8847L69.9472 76.8972C69.9167 76.9055 69.8861 76.9153 69.8556 76.9222C69.8028 76.9361 69.7486 76.9472 69.6958 76.9597L69.6694 76.9653C69.6444 76.9708 69.6181 76.9764 69.5931 76.9819C69.5333 76.993 69.4736 77.0014 69.4139 77.0097L69.3875 77.0139C69.3667 77.0167 69.3458 77.0208 69.325 77.0222C69.2306 77.0333 69.1417 77.0403 69.0542 77.043L22.1847 77.0458ZM18.6431 73.3555L20.2056 75.4847C20.6417 76.0792 21.3625 76.4194 22.1847 76.4194L69.0444 76.4167C69.1069 76.4139 69.1819 76.4069 69.2569 76.3986C69.2694 76.3972 69.282 76.3958 69.2945 76.393L69.3306 76.3875C69.3806 76.3805 69.4306 76.3736 69.4806 76.3639C69.5 76.3597 69.5181 76.3555 69.5361 76.3514L69.5667 76.3444C69.6111 76.3347 69.6569 76.325 69.7014 76.3139C69.7264 76.3069 69.7514 76.3 69.775 76.293L69.8333 76.2764C69.8472 76.2722 69.8597 76.2694 69.8736 76.2653L69.9236 76.2472C69.95 76.2389 69.9778 76.2278 70.0056 76.218C70.0486 76.2028 70.0931 76.1861 70.1361 76.168C70.1639 76.1569 70.1903 76.1458 70.2167 76.1347L70.2653 76.1139C70.2778 76.1069 70.2903 76.1 70.3028 76.0944C70.3736 76.0611 70.4444 76.025 70.5139 75.9875C70.5264 75.9805 70.5389 75.975 70.5514 75.968C70.5639 75.9611 70.5722 75.9555 70.5819 75.95C70.7403 75.8583 70.8917 75.7542 71.032 75.6417L71.0667 75.6139C71.0778 75.6042 71.0889 75.5944 71.1 75.5847C71.1445 75.5472 71.1903 75.5083 71.2333 75.468C71.2417 75.4611 71.25 75.4528 71.2597 75.4458L71.2764 75.4291C71.2861 75.4194 71.2958 75.4097 71.3056 75.4C71.3472 75.3597 71.3861 75.3194 71.425 75.2778C71.4333 75.268 71.4431 75.2583 71.4528 75.2486L71.4625 75.2375C71.475 75.2222 71.4833 75.2125 71.4917 75.2028C71.5333 75.1542 71.5736 75.1055 71.6139 75.0555C71.6222 75.0444 71.6319 75.0333 71.6417 75.0208L71.6528 75.0069C71.6528 75.0055 71.6583 74.9972 71.6653 74.9889C71.725 74.9083 71.7806 74.8264 71.8306 74.7458L71.8431 74.7278C71.8778 74.6708 71.9097 74.6153 71.9403 74.5583L71.9486 74.5403C71.975 74.4889 72.0028 74.4347 72.0278 74.3792L72.0458 74.3403L85.8014 42.8861C85.8292 42.8208 85.8556 42.7569 85.8778 42.6917L85.8986 42.6292C85.9139 42.5847 85.9278 42.5403 85.9403 42.4972C85.9472 42.4736 85.9528 42.45 85.9597 42.4264C85.9708 42.3847 85.9806 42.3444 85.9889 42.3042C85.9944 42.2805 85.9986 42.2569 86.0028 42.2333C86.0111 42.1917 86.0167 42.15 86.0222 42.1083L86.0306 42.0444C86.0361 41.993 86.0403 41.943 86.0431 41.8917L86.0444 41.868C86.0472 41.8 86.0472 41.7403 86.0458 41.6819L86.0431 41.6305C86.0403 41.5889 86.0375 41.5472 86.0333 41.5055C86.0319 41.4889 86.0292 41.4708 86.0264 41.4542C86.0194 41.4055 86.0139 41.3694 86.0083 41.3319C86.0069 41.3222 86.0056 41.3125 86.0042 41.3014C86.0014 41.2861 85.9986 41.2764 85.9958 41.2653C85.9889 41.2347 85.9819 41.2014 85.9722 41.168C85.9653 41.1417 85.9611 41.1236 85.9556 41.1069C85.9458 41.0722 85.9347 41.0375 85.9222 41.0028L85.9125 40.9708C85.9097 40.9639 85.9069 40.9569 85.9042 40.95C85.8778 40.8778 85.8458 40.8042 85.8056 40.725L85.7889 40.6917C85.757 40.6292 85.7194 40.5667 85.6792 40.5055L85.6653 40.4833C85.65 40.4611 85.6333 40.4375 85.6153 40.4125L84.0556 38.2861C84.0556 38.3 84.0542 38.3139 84.0542 38.3264L84.0514 38.3583C84.0472 38.4278 84.0431 38.4917 84.0347 38.5555C84.032 38.575 84.0292 38.5944 84.0264 38.6139L84.0236 38.6347C84.0167 38.6861 84.0083 38.7375 83.9986 38.7889C83.9931 38.8167 83.9875 38.8458 83.9819 38.875C83.9708 38.925 83.9597 38.975 83.9472 39.025C83.9389 39.0569 83.9319 39.0847 83.9236 39.1111C83.9083 39.1639 83.8917 39.2167 83.8736 39.2708L83.8653 39.2944C83.8597 39.3111 83.8542 39.3292 83.8472 39.3458C83.8194 39.4236 83.7889 39.5014 83.7542 39.5792L69.9986 71.0333C69.9639 71.1111 69.9264 71.1917 69.8806 71.2778L69.875 71.2903C69.832 71.3722 69.7875 71.4458 69.7431 71.5194C69.6847 71.6153 69.6181 71.7111 69.5472 71.8069C69.5333 71.825 69.5194 71.843 69.5056 71.8611L69.4875 71.8847C69.4403 71.9444 69.3931 72.0028 69.3431 72.0597C69.3181 72.0889 69.2917 72.118 69.2639 72.1472C69.2181 72.1958 69.1722 72.243 69.125 72.2903L69.1139 72.3014C69.0903 72.325 69.0653 72.3486 69.0417 72.3722C68.9903 72.4194 68.9389 72.4639 68.8861 72.5083L68.8625 72.5292C68.8444 72.5444 68.8264 72.5611 68.8069 72.575C68.7181 72.6458 68.6361 72.7069 68.5556 72.7625C68.4736 72.8194 68.3833 72.8764 68.2792 72.9361C68.2611 72.9472 68.2417 72.9569 68.2236 72.9667L68.2 72.9792C68.1194 73.0236 68.0361 73.0667 67.9514 73.1055L67.9264 73.1167C67.9014 73.1292 67.875 73.1403 67.85 73.1528C67.8222 73.1653 67.7917 73.1778 67.7625 73.1889C67.7042 73.2125 67.6528 73.2319 67.6014 73.2514C67.5695 73.2625 67.5361 73.275 67.5042 73.2861C67.4528 73.3028 67.4014 73.318 67.35 73.3333L67.3333 73.3375C67.3028 73.3458 67.2722 73.3555 67.2431 73.3625C67.1903 73.3764 67.1361 73.3875 67.082 73.4L67.0542 73.4055C67.0292 73.4111 67.0042 73.4167 66.9778 73.4208C66.9181 73.4319 66.8583 73.4403 66.7986 73.4486L66.7722 73.4528C66.7514 73.4555 66.7319 73.4583 66.7111 73.4611C66.6167 73.4722 66.5278 73.4792 66.4403 73.4819L19.5681 73.4847C19.2472 73.4833 18.9361 73.4389 18.6431 73.3555ZM72.3542 75.0875L72.3528 75.0903C72.3542 75.0889 72.3542 75.0889 72.3542 75.0875ZM71.8458 74.725C71.8458 74.7264 71.8444 74.7264 71.8444 74.7278L71.8458 74.725Z" fill="#F9FAFB"/>
<path d="M83.8472 19.5166L81.2347 15.9541L78.9903 30.0277L78.1 35.6027H81.025C81.1111 35.6027 81.1972 35.6055 81.2792 35.6124L81.6028 33.5888V33.5874L83.8472 19.5166Z" fill="#E4E7EC"/>
<path d="M81.5431 35.95L81.2542 35.9264C81.1806 35.9208 81.1028 35.9167 81.025 35.9167H77.7333L81.0431 15.1653L84.1764 19.4361L81.9333 33.5042L81.9125 33.6403L81.5431 35.95ZM78.4667 35.2917H81.0153L81.2944 33.5417L83.5181 19.5972L81.425 16.7431L78.4667 35.2917Z" fill="#F9FAFB"/>
<path d="M83.4736 39.4501L69.7181 70.9043C69.1528 72.1974 67.8195 73.1112 66.432 73.1668L19.5722 73.1696C18.1375 73.1696 17.032 72.239 16.8722 70.9029L12.4917 33.8751C12.2625 31.9349 14.082 30.0293 16.1653 30.0293H33.1945C34.6292 30.0293 35.7375 30.9571 35.8958 32.2932L36.0195 33.339C36.1778 34.6765 37.2833 35.6057 38.7195 35.6057H81.0264C81.1125 35.6057 81.1986 35.6085 81.2806 35.6154C83.207 35.7626 84.2861 37.5904 83.4736 39.4501Z" fill="#D0D5DD"/>
<path d="M19.5708 73.4834C17.9764 73.4834 16.7389 72.4375 16.5611 70.9417L12.1806 33.9112C12.0667 32.9459 12.4125 31.9278 13.132 31.1195C13.925 30.2278 15.0306 29.7153 16.1653 29.7153H33.1945C34.7903 29.7153 36.0292 30.7598 36.2056 32.2556L36.3292 33.3014C36.4681 34.4737 37.45 35.2917 38.7181 35.2917H81.025C81.1208 35.2917 81.2139 35.2959 81.3056 35.3028C82.3111 35.3806 83.1667 35.8876 83.6514 36.6931C84.1556 37.5306 84.1945 38.582 83.7611 39.5751L70.0056 71.0292C69.3917 72.4334 67.9611 73.4181 66.4458 73.4792L19.5708 73.4834ZM16.1653 30.3417C15.2222 30.3417 14.2639 30.7876 13.5986 31.5348C12.9986 32.2098 12.7083 33.0487 12.8014 33.8376L17.182 70.8681C17.3208 72.0403 18.3028 72.8584 19.5708 72.8584L66.4306 72.8556C67.6806 72.8056 68.9181 71.9514 69.4306 70.7806L83.1875 39.3264C83.5389 38.5209 83.5125 37.6792 83.1153 37.0167C82.7361 36.3862 82.0597 35.9889 81.257 35.9278C81.182 35.9223 81.1042 35.9181 81.0264 35.9181H38.7181C37.1236 35.9181 35.8861 34.8723 35.7083 33.3764L35.5847 32.3306C35.4458 31.1598 34.4625 30.3417 33.1945 30.3417H16.1653Z" fill="#F9FAFB"/>
<path d="M78.1 35.9166H38.7181C37.1236 35.9166 35.8847 34.8722 35.707 33.3763L35.5847 32.3305C35.4458 31.1597 34.4625 30.3416 33.1945 30.3416H21.9903C21.8986 30.3416 21.8125 30.3013 21.7528 30.2319C21.6931 30.1624 21.6681 30.0708 21.682 29.9805L22.3056 26.0666C22.3292 25.9152 22.4611 25.8027 22.6139 25.8027H30.5056L32.9153 10.6916H25.1236C25.032 10.6916 24.9458 10.6513 24.8861 10.5819C24.8264 10.5124 24.8014 10.4208 24.8153 10.3305L26.2681 1.21799C26.2917 1.0666 26.4236 0.954102 26.5764 0.954102H68.35C68.4403 0.954102 68.525 0.992989 68.5847 1.06104L68.8042 1.31105C68.8653 1.38049 68.8931 1.47494 68.8778 1.5666L66.6347 15.6416H81.2333C81.325 15.6416 81.4111 15.6819 81.4708 15.7513C81.5306 15.8208 81.5556 15.9124 81.5417 16.0027L78.4083 35.6527C78.3847 35.8055 78.2542 35.9166 78.1 35.9166ZM22.357 29.7166H33.1958C34.7903 29.7166 36.0292 30.761 36.207 32.2569L36.3292 33.3027C36.4681 34.4735 37.4514 35.2916 38.7195 35.2916H77.8333L80.8681 16.2666H66.2695C66.1778 16.2666 66.0917 16.2263 66.032 16.1569C65.9722 16.0874 65.9472 15.9958 65.9611 15.9055L68.2389 1.61243L68.2097 1.5791H26.8445L25.4903 10.0666H33.282C33.3736 10.0666 33.4597 10.1069 33.5195 10.1763C33.5792 10.2458 33.6042 10.3374 33.5903 10.4277L31.0806 26.1638C31.057 26.3152 30.925 26.4277 30.7722 26.4277H22.8806L22.357 29.7166ZM63.075 31.9708H37.3861C37.082 31.9708 36.8014 31.8472 36.6167 31.6305C36.4347 31.4166 36.3597 31.1374 36.4056 30.8458C36.4972 30.2694 37.0347 29.818 37.6292 29.818H63.3181C63.6208 29.818 63.9014 29.9416 64.0847 30.1569C64.2681 30.3708 64.3431 30.6513 64.2958 30.9444C64.2042 31.5194 63.6681 31.9708 63.075 31.9708ZM37.6292 30.443C37.3445 30.443 37.0667 30.6722 37.0236 30.9444C37.0056 31.0541 37.0306 31.1513 37.0931 31.2249C37.1597 31.3027 37.2639 31.3458 37.3861 31.3458H63.075C63.3597 31.3458 63.6361 31.1166 63.6792 30.8458C63.6972 30.736 63.6722 30.636 63.6097 30.5624C63.5431 30.4847 63.4403 30.443 63.3181 30.443H37.6292ZM63.8917 26.8513H38.2014C37.8972 26.8513 37.6181 26.7277 37.4333 26.511C37.25 26.2972 37.175 26.018 37.2222 25.7249C37.3139 25.1499 37.8514 24.6985 38.4458 24.6985H64.1347C64.4389 24.6985 64.7181 24.8222 64.9028 25.0374C65.0847 25.2513 65.1597 25.5305 65.1139 25.8235C65.0208 26.3999 64.4847 26.8513 63.8917 26.8513ZM38.4458 25.3235C38.1611 25.3235 37.8833 25.5527 37.8403 25.8235C37.8222 25.9347 37.8472 26.0319 37.9097 26.1055C37.9764 26.1833 38.0806 26.2263 38.2028 26.2263H63.8917C64.1764 26.2263 64.4528 25.9972 64.4958 25.7249C64.5139 25.6138 64.4903 25.5166 64.4264 25.443C64.3597 25.3652 64.257 25.3235 64.1347 25.3235H38.4458ZM64.7083 21.7291H39.0195C38.7153 21.7291 38.4347 21.6055 38.25 21.3888C38.0681 21.1749 37.9931 20.8958 38.0389 20.6041C38.1306 20.0277 38.6681 19.5763 39.2625 19.5763H64.9514C65.2542 19.5763 65.5347 19.6999 65.7181 19.9152C65.9014 20.1291 65.9764 20.4097 65.9292 20.7027C65.8375 21.2791 65.3014 21.7291 64.7083 21.7291ZM39.2625 20.2013C38.9778 20.2013 38.7 20.4305 38.657 20.7027C38.6389 20.8124 38.6625 20.9097 38.7264 20.9833C38.7931 21.061 38.8972 21.1041 39.0195 21.1041H64.7083C64.9931 21.1041 65.2695 20.8749 65.3125 20.6041C65.3306 20.4944 65.3056 20.3944 65.2431 20.3208C65.1764 20.243 65.0736 20.2013 64.9514 20.2013H39.2625Z" fill="#F9FAFB"/>
<path d="M16.7514 10.1262L14.1611 26.3679H30.9889L33.5792 10.1262H16.7514ZM31.1556 12.1596L29.2139 24.3332H16.5806L18.5222 12.1596H31.1556Z" fill="#D0D5DD"/>
<path d="M68.5722 1.51807L81.2361 15.9542H66.2695L68.5722 1.51807Z" fill="#D0D5DD"/>
<path d="M81.2361 16.2666H66.2695C66.1778 16.2666 66.0917 16.2263 66.032 16.1569C65.9722 16.0875 65.9472 15.9958 65.9611 15.9055L68.2639 1.4694C68.2833 1.34995 68.3695 1.25134 68.4861 1.21801C68.6028 1.18468 68.7278 1.22079 68.8083 1.31245L81.4722 15.7486C81.5528 15.8402 81.5722 15.9722 81.5222 16.0833C81.4695 16.1958 81.3583 16.2666 81.2361 16.2666ZM66.6361 15.6416H80.5458L68.775 2.22495L66.6361 15.6416Z" fill="#F9FAFB"/>
<path d="M65.6736 19.954C65.4986 19.7485 65.2417 19.636 64.9528 19.636H39.2625C38.6972 19.636 38.1847 20.0652 38.0986 20.6138C38.0542 20.8888 38.125 21.1499 38.2958 21.3513C38.4695 21.554 38.7333 21.6707 39.0195 21.6707H64.7083C65.2736 21.6707 65.7833 21.2415 65.8708 20.6943C65.9153 20.4179 65.8445 20.1554 65.6736 19.954Z" fill="#D0D5DD"/>
<path d="M64.1347 24.7583H38.4458C37.8806 24.7583 37.3695 25.1875 37.282 25.7347C37.2375 26.0097 37.3084 26.2722 37.4792 26.4722C37.6528 26.675 37.9153 26.7916 38.2028 26.7916H63.8917C64.457 26.7916 64.9667 26.3625 65.0542 25.8139C65.0986 25.5389 65.0278 25.2764 64.857 25.0764C64.6847 24.8736 64.4208 24.7583 64.1347 24.7583Z" fill="#D0D5DD"/>
<path d="M63.3181 29.8777H37.6292C37.0639 29.8777 36.5514 30.3068 36.4653 30.8555C36.4208 31.1305 36.4917 31.3916 36.6625 31.593C36.8361 31.7957 37.1 31.9124 37.3861 31.9124H63.075C63.6403 31.9124 64.15 31.4832 64.2375 30.936C64.282 30.661 64.2111 30.3985 64.0403 30.1971C63.8639 29.9902 63.6083 29.8777 63.3181 29.8777Z" fill="#D0D5DD"/>
</svg>
